<?xml version="1.0" standalone="no"?>
<!DOCTYPE svg PUBLIC "-//W3C//DTD SVG 20010904//EN"
 "http://www.w3.org/TR/2001/REC-SVG-20010904/DTD/svg10.dtd">
<svg version="1.0" xmlns="http://www.w3.org/2000/svg"
 width="720.000000pt" height="218.000000pt" viewBox="0 0 720.000000 218.000000"
 preserveAspectRatio="xMidYMid meet">

<g transform="translate(0.000000,218.000000) scale(0.100000,-0.100000)"
fill="#000000" stroke="none">
<path d="M248 1360 c48 -45 54 -72 49 -219 -5 -129 -10 -156 -45 -223 -6 -13
631 -9 690 3 39 9 63 22 91 49 l37 38 0 141 c0 151 -11 200 -48 220 -14 7
-150 11 -408 11 l-388 0 22 -20z m632 -214 c0 -82 -3 -108 -16 -120 -13 -13
-45 -16 -195 -16 l-179 0 0 101 c0 55 5 109 10 120 10 18 23 19 195 19 l185 0
0 -104z"/>
<path d="M1092 1355 c15 -9 32 -24 38 -35 5 -10 10 -86 10 -172 0 -177 3 -186
77 -215 42 -16 80 -18 308 -18 271 0 319 6 367 44 22 19 23 25 26 185 l3 166
-30 30 c-29 30 -30 30 -149 30 l-120 0 34 -34 34 -34 0 -127 c0 -69 -5 -135
-10 -146 -10 -17 -22 -19 -148 -19 -94 0 -142 4 -150 12 -8 8 -12 57 -12 154
0 194 5 188 -172 192 -124 2 -131 1 -106 -13z"/>
<path d="M1955 1346 l30 -24 3 -206 3 -206 115 0 114 0 0 75 0 75 191 0 192 0
-7 -75 -7 -75 121 0 122 0 -4 179 c-3 203 -8 215 -84 255 -37 20 -57 21 -429
24 l-390 2 30 -24z m639 -100 c3 -13 3 -38 0 -55 l-6 -31 -184 0 -184 0 0 39
c0 74 -8 71 190 71 l178 0 6 -24z"/>
<path d="M2859 1341 l31 -29 0 -201 0 -201 373 0 372 1 -30 25 c-66 56 -106
66 -300 73 l-180 6 -5 150 c-5 151 -13 186 -46 199 -8 3 -67 6 -131 6 l-115 0
31 -29z"/>
<path d="M3340 1365 c0 -2 23 -16 50 -30 56 -28 137 -50 221 -60 l56 -6 7 -91
c3 -50 6 -131 6 -180 l0 -88 110 0 110 0 0 179 0 179 43 7 c72 11 102 24 137
60 l34 35 -387 0 c-213 0 -387 -2 -387 -5z"/>
<path d="M4182 1341 l33 -29 0 -201 0 -201 111 0 c130 0 124 -5 124 106 0 88
-3 87 121 45 151 -51 331 -128 602 -254 53 -25 97 -45 97 -43 0 1 -30 27 -67
57 -88 71 -206 154 -313 218 l-85 51 40 0 c50 0 148 25 179 45 30 20 39 71 22
127 -9 32 -23 50 -55 73 l-43 30 -399 3 -400 3 33 -30z m622 -67 c11 -4 16
-19 16 -45 l0 -39 -185 0 -185 0 0 35 c0 28 5 38 23 45 25 10 306 13 331 4z"/>
<path d="M5124 1356 c-17 -13 -19 -30 -22 -186 -3 -168 -3 -173 20 -197 52
-56 67 -58 398 -58 320 0 365 5 408 45 21 20 22 29 22 185 0 90 -3 171 -6 180
-17 42 -45 45 -432 45 -302 0 -372 -3 -388 -14z m596 -195 c0 -60 -3 -116 -6
-125 -5 -14 -32 -16 -190 -16 l-184 0 0 109 c0 86 3 113 16 125 13 13 45 16
190 16 l174 0 0 -109z"/>
<path d="M5961 1355 c42 -23 49 -62 49 -261 l0 -184 115 0 115 0 0 168 c0 117
4 172 12 180 15 15 325 17 348 2 12 -7 16 -41 18 -180 l3 -170 108 0 108 0 7
139 c11 210 -2 253 -86 295 l-52 26 -385 0 c-341 -1 -383 -2 -360 -15z"/>
</g>
</svg>
