<?xml version="1.0" standalone="no"?>
<!DOCTYPE svg PUBLIC "-//W3C//DTD SVG 20010904//EN"
 "http://www.w3.org/TR/2001/REC-SVG-20010904/DTD/svg10.dtd">
<svg version="1.0" xmlns="http://www.w3.org/2000/svg"
 width="800.000000pt" height="450.000000pt" viewBox="0 0 800.000000 450.000000"
 preserveAspectRatio="xMidYMid meet">

<g transform="translate(0.000000,450.000000) scale(0.100000,-0.100000)"
fill="#000000" stroke="none">
<path d="M4792 2253 l3 -528 70 0 70 0 3 528 2 527 -75 0 -75 0 2 -527z"/>
<path d="M2461 2559 c-66 -13 -164 -62 -214 -108 -49 -46 -97 -128 -121 -210
-53 -182 52 -395 239 -483 204 -95 453 -2 556 207 32 66 34 75 34 180 0 106
-1 113 -35 180 -61 122 -175 209 -309 235 -61 11 -88 11 -150 -1z m175 -164
c145 -60 211 -235 142 -370 -33 -63 -70 -98 -133 -126 -141 -62 -316 17 -359
162 -20 67 -20 104 1 168 35 109 135 181 250 181 35 0 80 -7 99 -15z"/>
<path d="M3030 2515 l-55 -55 153 -153 c83 -84 152 -157 152 -162 0 -5 -69
-78 -152 -162 l-153 -153 55 -55 55 -55 157 157 158 158 158 -158 157 -157 55
55 55 55 -158 158 -157 157 157 157 158 158 -55 55 -55 55 -157 -157 -158
-158 -158 158 -157 157 -55 -55z"/>
<path d="M4182 2559 c-107 -21 -218 -99 -281 -197 -38 -61 -66 -185 -57 -255
12 -92 36 -155 81 -215 49 -65 91 -98 180 -139 53 -24 72 -27 160 -28 92 0
106 3 167 32 76 36 158 107 194 169 26 44 48 114 58 182 l6 42 -80 0 -80 0 0
-35 c0 -100 -114 -218 -231 -239 -40 -7 -135 10 -145 26 -4 6 98 115 226 243
261 261 249 239 165 313 -56 50 -135 87 -211 101 -65 12 -91 12 -152 0z m182
-168 l30 -12 -179 -179 c-99 -99 -183 -180 -186 -180 -29 0 -38 165 -14 224
29 69 100 133 175 157 33 11 138 5 174 -10z"/>
<path d="M5391 2559 c-68 -13 -161 -62 -211 -111 -25 -25 -64 -78 -85 -119
-40 -73 -40 -75 -40 -184 0 -105 1 -113 35 -180 63 -128 171 -209 317 -239 61
-12 81 -13 136 -1 175 36 296 154 343 330 26 96 12 184 -48 298 -55 102 -169
183 -293 206 -66 12 -91 12 -154 0z m174 -166 c97 -33 175 -143 175 -248 0
-146 -120 -265 -268 -265 -108 0 -188 50 -237 147 -52 101 -36 207 42 294 75
83 180 109 288 72z"/>
</g>
</svg>
